<svg id="logo-bit" data-name="logo-bit" xmlns="http://www.w3.org/2000/svg" viewBox="0 0 123.81 123.81">
    <defs>
        <style>
            .bit-seta{fill:#232526;stroke:#f8f8f2;stroke-linecap:round;stroke-linejoin:round;}
            .bit-it{fill:#a6e22e;}
            .bit-bg{fill:none;}
        </style>
    </defs>
    <rect class="bit-bg" width="123.81" height="123.81"/>
    <polygon class="bit-seta" points="16.59 44.68 16.59 87.58 28.69 71.86 45.68 71.86 16.59 44.68"/>
    <path class="bit-it" d="M67.86,72.32q-5,0-7.55-2.33c-1.72-1.55-2.58-3.95-2.58-7.22v-9.2H54.59V45h3.14V38.29H68.89V45h6.17v8.57H68.89v6.72a2.73,2.73,0,0,0,.69,2.12,2.93,2.93,0,0,0,2,.61A8.43,8.43,0,0,0,75,62.23V70.8a12.7,12.7,0,0,1-3.18,1.1A17.78,17.78,0,0,1,67.86,72.32Z"/>
    <rect class="bit-it" x="41.13" y="36.23" width="11.16" height="6.86"/>
    <polygon class="bit-it" points="41.13 45 41.13 64.03 49.44 71.73 52.29 71.73 52.29 45 41.13 45"/>
    <path class="bit-it" d="M78.18,73.48h29v5.58h-29Z"/>
</svg>